<svg width="1440" height="520" viewBox="0 0 1440 520" fill="none" xmlns="http://www.w3.org/2000/svg">
  <rect width="1440" height="520" fill="#F7FAFC"/>
  <path d="M0 344L147 228L292 337L461 154L633 333L800 204L974 344L1156 170L1440 352V520H0V344Z" fill="#D9E6F2"/>
  <path d="M461 154L540 236L494 218L461 154Z" fill="#F8FBFF"/>
  <path d="M1156 170L1261 237L1194 221L1156 170Z" fill="#F8FBFF"/>
  <path d="M800 204L882 270L826 254L800 204Z" fill="#F8FBFF"/>
  <path d="M0 388L181 302L335 366L520 253L701 379L899 286L1082 386L1264 278L1440 371V520H0V388Z" fill="#AEBFD0"/>
  <path d="M520 253L604 312L556 303L520 253Z" fill="#F8FBFF"/>
  <path d="M1264 278L1337 316L1291 309L1264 278Z" fill="#F8FBFF"/>
  <path d="M0 430L173 369L354 421L537 330L718 430L904 344L1088 438L1270 355L1440 426V520H0V430Z" fill="#50647A"/>
  <path d="M537 330L607 371L565 366L537 330Z" fill="#EEF5FA"/>
  <path d="M904 344L978 381L928 377L904 344Z" fill="#EEF5FA"/>
  <path d="M0 474C160 438 292 438 420 470C557 504 702 511 842 480C1011 442 1179 441 1440 486V520H0V474Z" fill="#142033"/>
  <circle cx="1120" cy="94" r="42" fill="#FF9F2E" opacity="0.22"/>
</svg>
